<svg width="27" height="33" viewBox="0 0 27 33" fill="none" xmlns="http://www.w3.org/2000/svg">
<g filter="url(#filter0_d_88_38)">
<path d="M3 13.2792C3 13.7332 10 28 10 28H21.4545C21.4545 28 22.8737 23.4425 23.3639 20.3195C23.8291 17.3569 24.0003 13.2792 24 12.6392C23.9991 10.8368 20.1818 10.079 20.1818 10.079C20.1818 10.079 20.2754 8.86932 20.1821 8.79893C17.6367 6.87883 16.3636 8.79897 16.3636 8.79897C16.3636 8.79897 15.7196 7.83507 15.0909 7.5189C14.2018 7.07178 12.5455 7.5189 12.5455 7.5189V2.39863C12.5455 1.75856 11.9396 1.34212 11.2727 1.11856C10.8012 0.96048 10.4715 0.96048 10 1.11856C9.33316 1.34212 8.72758 1.75856 8.72727 2.39863C8.72712 2.71258 8.72727 13.2792 8.72727 15.1993C8.72727 16.9667 5.74602 12.201 5.54545 11.9991C4.9094 11.3591 3 11.3591 3 13.2792Z" fill="white"/>
<path d="M12.5455 12.6392V7.5189M12.5455 7.5189C12.5455 7.5189 12.5455 4.39822 12.5455 2.39863C12.5455 1.75856 11.9396 1.34212 11.2727 1.11856C10.8012 0.96048 10.4715 0.96048 10 1.11856C9.33316 1.34212 8.72758 1.75856 8.72727 2.39863C8.72712 2.71258 8.72727 13.2792 8.72727 15.1993C8.72727 16.9667 5.74602 12.201 5.54545 11.9991C4.9094 11.3591 3 11.3591 3 13.2792C3 13.7332 10 28 10 28H21.4545C21.4545 28 22.8737 23.4425 23.3639 20.3195C23.8291 17.3569 24.0003 13.2792 24 12.6392C23.9991 10.8368 20.1818 10.079 20.1818 10.079M12.5455 7.5189C12.5455 7.5189 14.2018 7.07178 15.0909 7.5189C15.7196 7.83507 16.3636 8.79897 16.3636 8.79897M16.3636 8.79897V12.6392M16.3636 8.79897C16.3636 8.79897 17.6367 6.87883 20.1821 8.79893C20.2754 8.86932 20.1818 10.079 20.1818 10.079M20.1818 13.9192V10.079" stroke="black"/>
</g>
<defs>
<filter id="filter0_d_88_38" x="0.5" y="0.5" width="26" height="32" filterUnits="userSpaceOnUse" color-interpolation-filters="sRGB">
<feFlood flood-opacity="0" result="BackgroundImageFix"/>
<feColorMatrix in="SourceAlpha" type="matrix" values="0 0 0 0 0 0 0 0 0 0 0 0 0 0 0 0 0 0 127 0" result="hardAlpha"/>
<feOffset dy="2"/>
<feGaussianBlur stdDeviation="1"/>
<feColorMatrix type="matrix" values="0 0 0 0 0 0 0 0 0 0 0 0 0 0 0 0 0 0 0.4 0"/>
<feBlend mode="normal" in2="BackgroundImageFix" result="effect1_dropShadow_88_38"/>
<feBlend mode="normal" in="SourceGraphic" in2="effect1_dropShadow_88_38" result="shape"/>
</filter>
</defs>
</svg>
