<svg width="60" height="61" viewBox="0 0 60 61" fill="none" xmlns="http://www.w3.org/2000/svg">
<path d="M57.0968 33.4794H41.6129C40.0161 33.4794 38.7097 34.7858 38.7097 36.3826V43.1568H34.8387V34.302C36.5 33.8665 37.7419 32.3665 37.7419 30.5762C37.7419 28.7858 36.5 27.2697 34.8387 26.8504V20.8988H39.6774C41.2742 20.8988 42.5806 19.5923 42.5806 17.9955V13.1568H46.5323C47 15.8988 49.3871 17.9955 52.2581 17.9955C55.4677 17.9955 58.0645 15.3988 58.0645 12.1891C58.0645 11.1891 57.8064 10.2375 57.3548 9.41488L59.7097 7.06004L58.3387 5.68907L56.1452 7.88262C55.1129 6.94714 53.7419 6.36649 52.2581 6.36649C49.3871 6.36649 47 8.46327 46.5323 11.2052H42.5806V6.36649C42.5806 4.76972 41.2742 3.46327 39.6774 3.46327H28.0645C26.4677 3.46327 25.1613 4.76972 25.1613 6.36649V11.2052H23.2258V9.49553L20.6774 8.80198C20.5968 8.57617 20.5 8.36649 20.4032 8.14069L21.7097 5.85036L17.9355 2.07617L15.6452 3.38262C15.4194 3.28585 15.2097 3.18907 14.9839 3.10843L14.2903 0.576172H8.93548L8.24194 3.12456C8.01613 3.2052 7.80645 3.30198 7.58065 3.39875L5.29032 2.0923L1.51613 5.86649L2.82258 8.15682C2.72581 8.38262 2.62903 8.5923 2.54839 8.8181L0 9.51165V14.8665L2.54839 15.56C2.62903 15.7858 2.72581 15.9955 2.82258 16.2213L1.51613 18.5117L5.29032 22.2858L7.58065 20.9794C7.80645 21.0762 8.01613 21.1729 8.24194 21.2536L8.93548 23.7858H10.6452V39.2697H2.90323C1.30645 39.2697 0 40.5762 0 42.1729V57.6568C0 59.2536 1.30645 60.56 2.90323 60.56H20.3226C21.9194 60.56 23.2258 59.2536 23.2258 57.6568V42.1729C23.2258 40.5762 21.9194 39.2697 20.3226 39.2697H12.5806V23.7858H14.2903L14.9839 21.2375C15.2097 21.1568 15.4194 21.06 15.6452 20.9633L17.9355 22.2697L21.7258 18.4955L20.4194 16.2052C20.5161 15.9794 20.6129 15.7697 20.6935 15.5439L23.2258 14.8504V13.1407H25.1613V17.9794C25.1613 19.5762 26.4677 20.8826 28.0645 20.8826H32.9032V26.8342C31.2419 27.2697 30 28.7697 30 30.56C30 32.3665 31.2419 33.8665 32.9032 34.2858V45.0762H38.7097V51.8504C38.7097 53.4471 40.0161 54.7536 41.6129 54.7536H57.0968C58.6935 54.7536 60 53.4471 60 51.8504V36.3665C60 34.7697 58.6935 33.4794 57.0968 33.4794ZM52.2581 8.31811C53.2258 8.31811 54.0968 8.68907 54.7742 9.26972L52.2581 11.7858L51 10.5278L49.629 11.8988L52.2419 14.5117L55.871 10.8826C56.0161 11.2858 56.1129 11.7213 56.1129 12.1729C56.1129 14.302 54.371 16.0439 52.2419 16.0439C50.1129 16.0439 48.371 14.302 48.371 12.1729C48.371 10.0439 50.129 8.31811 52.2581 8.31811ZM20.3226 58.6407H2.90323C2.37097 58.6407 1.93548 58.2052 1.93548 57.6729V45.0923H21.2903V57.6729C21.2903 58.2052 20.8548 58.6407 20.3226 58.6407ZM21.2903 42.1891V43.1568H1.93548V42.1891C1.93548 41.6568 2.37097 41.2213 2.90323 41.2213H20.3226C20.8548 41.2213 21.2903 41.6568 21.2903 42.1891ZM21.2903 13.3826L19.1613 13.9633L19 14.4633C18.8548 14.9149 18.6774 15.3504 18.4516 15.7858L18.2097 16.2536L19.3065 18.1729L17.6129 19.8826L15.6935 18.7858L15.2258 19.0278C14.7903 19.2536 14.3387 19.4471 13.9032 19.5762L13.4032 19.7375L12.8226 21.8504H10.4355L9.85484 19.7213L9.35484 19.56C8.90323 19.4149 8.46774 19.2375 8.03226 19.0117L7.56452 18.7697L5.64516 19.8665L3.95161 18.1729L5.04839 16.2536L4.80645 15.7858C4.58064 15.3504 4.3871 14.8987 4.25806 14.4633L4.09677 13.9633L1.98387 13.3826V10.9955L4.1129 10.4149L4.27419 9.91488C4.41935 9.46327 4.59677 9.02778 4.82258 8.5923L5.06452 8.12456L3.96774 6.2052L5.66129 4.51165L7.58065 5.60843L8.04839 5.36649C8.48387 5.14069 8.93548 4.94714 9.37097 4.81811L9.87097 4.65682L10.4516 2.52778H12.8387L13.4194 4.65682L13.9194 4.81811C14.371 4.96327 14.8065 5.14069 15.2419 5.36649L15.7097 5.60843L17.629 4.51165L19.3226 6.2052L18.2258 8.12456L18.4677 8.5923C18.6935 9.02778 18.8871 9.4794 19.0161 9.91488L19.1774 10.4149L21.3065 10.9955L21.2903 13.3826ZM28.0645 5.41488H39.6774C40.2097 5.41488 40.6452 5.85036 40.6452 6.38262V7.35036H27.0968V6.38262C27.0968 5.85036 27.5323 5.41488 28.0645 5.41488ZM27.0968 17.9955V9.28585H40.6452V17.9955C40.6452 18.5278 40.2097 18.9633 39.6774 18.9633H28.0645C27.5323 18.9633 27.0968 18.5278 27.0968 17.9955ZM31.9355 30.5762C31.9355 29.5117 32.8064 28.6407 33.871 28.6407C34.9355 28.6407 35.8064 29.5117 35.8064 30.5762C35.8064 31.6407 34.9355 32.5117 33.871 32.5117C32.8064 32.5117 31.9355 31.6407 31.9355 30.5762ZM41.6129 35.4149H57.0968C57.629 35.4149 58.0645 35.8504 58.0645 36.3826V37.3504H40.6452V36.3826C40.6452 35.8504 41.0806 35.4149 41.6129 35.4149ZM57.0968 52.8342H41.6129C41.0806 52.8342 40.6452 52.3987 40.6452 51.8665V39.2858H58.0645V51.8665C58.0645 52.3987 57.629 52.8342 57.0968 52.8342Z" fill="#00093C"/>
</svg>
